<?xml version="1.0" encoding="UTF-8"?> <!-- Generator: Adobe Illustrator 24.1.1, SVG Export Plug-In . SVG Version: 6.00 Build 0) --> <svg xmlns="http://www.w3.org/2000/svg" xmlns:xlink="http://www.w3.org/1999/xlink" id="Layer_1" x="0px" y="0px" viewBox="0 0 512 512" style="enable-background:new 0 0 512 512;" xml:space="preserve"> <style type="text/css"> .st0{fill:#434D62;} .st1{fill:#62708E;} .st2{fill:#FD8946;} .st3{fill:#438CFF;} </style> <g> <path class="st0" d="M176,112H80V96c0-8.8,7.2-16,16-16h64c8.8,0,16,7.2,16,16V112z"></path> </g> <g> <path class="st0" d="M432,112h-96V96c0-8.8,7.2-16,16-16h64c8.8,0,16,7.2,16,16V112z"></path> </g> <g> <path class="st0" d="M16,208v144.8c0,43.7,35.5,79.2,79.2,79.2c21,0,41.1-8.3,56-23.2L206,354c21.8-21.8,34-51.3,34-82v-64L16,208z "></path> </g> <g> <path class="st0" d="M496,208v144.8c0,43.7-35.5,79.2-79.2,79.2c-21,0-41.1-8.3-56-23.2L306,354c-21.8-21.8-34-51.3-34-82v-64 L496,208z"></path> </g> <g> <path class="st1" d="M384,96c-26.2,0-50.2,9-69.3,24H197.3c-19.1-15-43.1-24-69.3-24C66.1,96,16,146.1,16,208s50.1,112,112,112 c12.3,0,24.1-2,35.1-5.6c7.6,21.9,28.4,37.6,52.9,37.6c15.7,0,29.8-6.4,40-16.8c10.2,10.4,24.3,16.8,40,16.8 c24.5,0,45.3-15.7,52.9-37.6c11,3.6,22.8,5.6,35.1,5.6c61.9,0,112-50.1,112-112S445.9,96,384,96z"></path> </g> <g> <path class="st0" d="M282.7,176h-53.3c-13.3,0-24-10.7-24-24v-32h101.3v32C306.7,165.3,295.9,176,282.7,176z"></path> </g> <g> <circle class="st2" cx="436" cy="208" r="28"></circle> </g> <g> <circle class="st2" cx="332" cy="208" r="28"></circle> </g> <g> <circle class="st3" cx="384" cy="156" r="28"></circle> </g> <g> <circle class="st3" cx="384" cy="260" r="28"></circle> </g> <g> <circle class="st0" cx="296" cy="296" r="29.3"></circle> </g> <g> <circle class="st0" cx="216" cy="296" r="29.3"></circle> </g> <g> <path class="st0" d="M149.2,178.4l-13.6,11.7c-1.4,1.2-3.3,1.9-5.2,1.9h-4.7c-1.9,0-3.8-0.7-5.2-1.9l-13.6-11.7 c-1.8-1.5-2.8-3.7-2.8-6.1V136c0-4.4,3.6-8,8-8h32c4.4,0,8,3.6,8,8v36.3C152,174.7,151,176.9,149.2,178.4z"></path> </g> <g> <path class="st0" d="M149.2,237.6l-13.6-11.7c-1.4-1.2-3.3-1.9-5.2-1.9h-4.7c-1.9,0-3.8,0.7-5.2,1.9l-13.6,11.7 c-1.8,1.5-2.8,3.7-2.8,6.1V280c0,4.4,3.6,8,8,8h32c4.4,0,8-3.6,8-8v-36.3C152,241.3,151,239.1,149.2,237.6z"></path> </g> <g> <path class="st0" d="M98.4,186.8l11.7,13.6c1.2,1.4,1.9,3.3,1.9,5.2v4.7c0,1.9-0.7,3.8-1.9,5.2l-11.7,13.6 c-1.5,1.8-3.7,2.8-6.1,2.8H56c-4.4,0-8-3.6-8-8v-32c0-4.4,3.6-8,8-8h36.3C94.7,184,96.9,185,98.4,186.8L98.4,186.8z"></path> </g> <g> <path class="st0" d="M157.6,186.8l-11.7,13.6c-1.2,1.4-1.9,3.3-1.9,5.2v4.7c0,1.9,0.7,3.8,1.9,5.2l11.7,13.6 c1.5,1.8,3.7,2.8,6.1,2.8H200c4.4,0,8-3.6,8-8v-32c0-4.4-3.6-8-8-8h-36.3C161.3,184,159.1,185,157.6,186.8L157.6,186.8z"></path> </g> </svg> 