<?xml version="1.0" encoding="UTF-8"?> <!-- Generator: Adobe Illustrator 24.1.1, SVG Export Plug-In . SVG Version: 6.00 Build 0) --> <svg xmlns="http://www.w3.org/2000/svg" xmlns:xlink="http://www.w3.org/1999/xlink" id="Capa_1" x="0px" y="0px" viewBox="0 0 512 512" style="enable-background:new 0 0 512 512;" xml:space="preserve"> <style type="text/css"> .st0{fill:url(#SVGID_1_);} .st1{fill:#384151;} .st2{fill:#434D62;} .st3{fill:#FD8946;} .st4{fill:#FFFFFF;} </style> <linearGradient id="SVGID_1_" gradientUnits="userSpaceOnUse" x1="61.978" y1="220.193" x2="511.999" y2="220.193"> <stop offset="0" style="stop-color:#83B3FF"></stop> <stop offset="0.6034" style="stop-color:#438CFF"></stop> <stop offset="1" style="stop-color:#736AFF"></stop> </linearGradient> <path class="st0" d="M483.6,375.9H90.4c-15.7,0-28.4-12.7-28.4-28.4V92.9c0-15.7,12.7-28.4,28.4-28.4h393.2 c15.7,0,28.4,12.7,28.4,28.4v254.6C512,363.2,499.3,375.9,483.6,375.9z"></path> <rect x="243.9" y="373.4" class="st1" width="86.2" height="74.6"></rect> <path class="st2" d="M62,347.5c0,15.7,12.7,28.4,28.4,28.4h393.2c15.7,0,28.4-12.7,28.4-28.4v-59.2H62V347.5z"></path> <circle class="st3" cx="472.7" cy="330.9" r="7.8"></circle> <g> <circle class="st3" cx="444.7" cy="330.9" r="7.8"></circle> <circle class="st3" cx="417.1" cy="330.9" r="7.8"></circle> </g> <path class="st2" d="M364.4,477H209.6c-1.6,0-2.9-1.3-2.9-2.9v-12.4c0-8.9,7.2-16.2,16.2-16.2h128.4c8.9,0,16.2,7.2,16.2,16.2v12.4 C367.3,475.7,366,477,364.4,477z"></path> <circle class="st4" cx="287" cy="329.2" r="15.2"></circle> </svg> 