<?xml version="1.0" encoding="UTF-8"?> <!-- Generator: Adobe Illustrator 24.1.1, SVG Export Plug-In . SVG Version: 6.00 Build 0) --> <svg xmlns="http://www.w3.org/2000/svg" xmlns:xlink="http://www.w3.org/1999/xlink" id="Capa_1" x="0px" y="0px" viewBox="0 0 551 536" style="enable-background:new 0 0 551 536;" xml:space="preserve"> <style type="text/css"> .st0{fill:#62708E;} .st1{fill:#434D62;} .st2{fill:#438CFF;} .st3{fill:#FD8946;} .st4{fill:#FDBF00;} .st5{fill:#37D742;} .st6{fill:#FFFFFF;} </style> <path class="st0" d="M551,46c0-24.9-21.7-45-48.4-45H48.4C21.7,1,0,21.1,0,46v90l10.8,10h529.5c4.2-3.9,6.6-6.1,10.8-10V46z"></path> <path class="st1" d="M551,46v90c-4.2,3.9-6.6,6.1-10.8,10H275.5V1h227.1C529.3,1,551,21.1,551,46z"></path> <path class="st2" d="M458.3,61h-90c-8.3,0-15,6.7-15,15s6.7,15,15,15h90c8.3,0,15-6.7,15-15S466.5,61,458.3,61z"></path> <circle class="st3" cx="196" cy="76" r="15"></circle> <circle class="st4" cx="136" cy="76" r="15"></circle> <circle class="st5" cx="76" cy="76" r="15"></circle> <path class="st6" d="M0,136v330c0,24.8,21.7,45,48.4,45h454.1c26.7,0,48.4-20.2,48.4-45V136H0z"></path> <g> <path class="st3" d="M326.4,197.2c-7.6-3.3-16.4,0.3-19.7,7.9l-90,210c-3.3,7.6,0.3,16.4,7.9,19.7c7.6,3.3,16.4-0.3,19.7-7.9 l90-210C337.6,209.3,334,200.5,326.4,197.2L326.4,197.2z"></path> <path class="st3" d="M334.3,216.9l-58.8,137.2v-76.2l31.2-72.8c3.3-7.6,12.1-11.1,19.7-7.9C334,200.5,337.6,209.3,334.3,216.9 L334.3,216.9z"></path> <path class="st3" d="M194.9,364.3L134.5,316l60.4-48.3c6.5-5.2,7.5-14.6,2.3-21.1c-5.2-6.5-14.6-7.5-21.1-2.3l-75,60 c-7.5,6-7.5,17.4,0,23.4l75,60c6.5,5.2,15.9,4.1,21.1-2.3C202.4,378.9,201.3,369.5,194.9,364.3L194.9,364.3z"></path> <path class="st3" d="M449.9,304.3l-75-60c-6.5-5.2-15.9-4.1-21.1,2.3c-5.2,6.5-4.1,15.9,2.3,21.1l60.4,48.3l-60.4,48.3 c-6.5,5.2-7.5,14.6-2.3,21.1c5.2,6.5,14.6,7.5,21.1,2.3l75-60C457.4,321.7,457.4,310.3,449.9,304.3z"></path> </g> </svg> 